<svg xmlns="http://www.w3.org/2000/svg" width="15" height="15.969" viewBox="0 0 15 15.969">
  <defs>
    <style>
      .cls-1 {
        fill: #c6cdd2;
        fill-rule: evenodd;
      }
    </style>
  </defs>
  <path id="形状_13_拷贝" data-name="形状 13 拷贝" class="cls-1" d="M34.166,516.984H28.05a0.986,0.986,0,0,1-.718-0.288,0.945,0.945,0,0,1-.294-0.7,1,1,0,0,1,1.011-1.006h6.116a1,1,0,0,1,.726.3,0.96,0.96,0,0,1,.3.711,0.95,0.95,0,0,1-.179.559l2.234-2.268V509H34.868a1.472,1.472,0,0,1-.783-0.2,1.719,1.719,0,0,1-.53-0.5,2.137,2.137,0,0,1-.3-0.647,2.447,2.447,0,0,1-.1-0.655v-2H25.612a0.616,0.616,0,0,0-.433.175A0.592,0.592,0,0,0,25,505.6v13.822a0.59,0.59,0,0,0,.179.423,0.617,0.617,0,0,0,.433.176h5.994l3.164-3.228a0.947,0.947,0,0,1-.6.192h0Zm0-5.992a1,1,0,0,1,.726.3,0.96,0.96,0,0,1,.3.711,0.936,0.936,0,0,1-.3.7,1.017,1.017,0,0,1-.726.287H28.05a0.989,0.989,0,0,1-.718-0.287,0.948,0.948,0,0,1-.294-0.7,1.006,1.006,0,0,1,1.011-1.007h6.116Zm1.778,6.279q-0.293.288-.587,0.584t-0.538.535l-0.408.4L34.2,519a1.27,1.27,0,0,0-.261.368,1.852,1.852,0,0,0-.09.239l-0.122.376c-0.044.133-.082,0.263-0.114,0.391s-0.054.224-.065,0.288a0.343,0.343,0,0,0,.033.272,0.272,0.272,0,0,0,.261.048c0.065-.011.163-0.032,0.294-0.064s0.266-.07.408-0.112,0.28-.088.416-0.136a3.051,3.051,0,0,0,.3-0.12,1.294,1.294,0,0,0,.2-0.12c0.065-.048.125-0.093,0.179-0.136,0.011-.01.068-0.069,0.171-0.175s0.231-.235.383-0.384l0.538-.527,0.587-.575,1.582-1.55-1.37-1.342q-0.88.846-1.582,1.533h0Zm4.045-1.454a1.184,1.184,0,0,0-.065-0.319,1.511,1.511,0,0,0-.285-0.424,1.275,1.275,0,0,0-.351-0.279,1.011,1.011,0,0,0-.375-0.1,0.535,0.535,0,0,0-.424.152c-0.055.042-.122,0.1-0.2,0.176s-0.155.138-.22,0.191l1.386,1.342a0.788,0.788,0,0,0,.114-0.1c0.033-.032.071-0.072,0.114-0.12s0.092-.1.147-0.152a0.456,0.456,0,0,0,.163-0.368h0Zm-2.74-7.845V505.6a0.593,0.593,0,0,0-.179-0.424A0.616,0.616,0,0,0,36.637,505H34.183v1.774a1.182,1.182,0,0,0,.358.847,1.233,1.233,0,0,0,.865.351h1.843Zm0,0" transform="translate(-25 -505)"/>
</svg>
