<svg xmlns="http://www.w3.org/2000/svg" xmlns:xlink="http://www.w3.org/1999/xlink" width="19" height="18" viewBox="0 0 19 18">
  <defs>
    <style>
      .cls-1 {
        fill: #fff;
        fill-rule: evenodd;
        filter: url(#filter);
      }
    </style>
    <filter id="filter" x="950" y="40" width="19" height="18" filterUnits="userSpaceOnUse">
      <feOffset result="offset" dx="0.5" dy="0.866" in="SourceAlpha"/>
      <feGaussianBlur result="blur"/>
      <feFlood result="flood" flood-color="#1e9f64"/>
      <feComposite result="composite" operator="in" in2="blur"/>
      <feBlend result="blend" in="SourceGraphic"/>
    </filter>
  </defs>
  <path id="矩形_21" data-name="矩形 21" class="cls-1" d="M952,40h12c1.93,0,2.25,1.1,2.25,3.033V53.947c0,1.93-.32,3.053-2.25,3.053H953a2.71,2.71,0,0,1-3-3V42C950,40.07,950.07,40,952,40Zm0.678,1.515H962.2c1.93,0,3.064-.375,3.064,1.317V53.88c0,1.663-1.1,1.565-3.034,1.565l-8.715-.031c-1.93,0-2.3.159-2.333-1.534V42.874C951.179,41.151,950.748,41.515,952.678,41.515Zm15.267,4.047L965.129,47.5h-5.886V41.489l2.278-1.993h6.424v6.065Zm-4.734-3.441,2.232,2.227-6.866,6.822-2.206-2.217ZM955,50l3,3h-3V50Zm10.957-9.562,1.032,0.955a0.916,0.916,0,0,1-.04,1.276,0.725,0.725,0,0,1-1.108.038l-1.185-1.019a0.839,0.839,0,0,1-.019-1.214A0.974,0.974,0,0,1,965.957,40.438ZM953.3,43.507h2.983v0.949H953.3V43.507Zm0,1.992h1.972v0.949H953.3V45.5Z" transform="translate(-950 -40)"/>
</svg>
